<?xml version="1.0" encoding="utf-8"?>
<!-- Generator: Adobe Illustrator 24.0.1, SVG Export Plug-In . SVG Version: 6.00 Build 0)  -->
<svg version="1.1" id="Capa_1" xmlns="http://www.w3.org/2000/svg" xmlns:xlink="http://www.w3.org/1999/xlink" x="0px" y="0px"
	 viewBox="0 0 416 416" style="enable-background:new 0 0 416 416;" xml:space="preserve">
<style type="text/css">
	.st0{fill:#1C87FC;}
	.st1{fill:#FFFFFF;}
</style>
<circle class="st0" cx="208" cy="208" r="208"/>
<path class="st1" d="M293.3,245c9.1-15.3,15.2-34.6,16.4-53.8c0.7-12.3-2-25.2-7.9-37.3c-9.3-19-25.3-29.7-40.7-40.1
	c-11.5-7.7-22.4-15-30.1-25.4l-1.4-1.9c-4.5-6.1-9.7-13-10.5-18.8c-0.8-5.9-6.2-10.1-12-9.7c-5.9,0.4-10.5,5.3-10.5,11.3v201.5
	c-9.5-5.7-21.1-9.3-33.9-9.3c-31.2,0-56.6,20.3-56.6,45.2c0,25,25.4,45.2,56.6,45.2s56.6-20.3,56.6-45.2V174.9
	c17,6.5,44.8,23,52.4,61.6c-1.4,2.1-2.8,4.4-4.4,6.2c-4.1,4.7-3.7,11.8,1,15.9c4.7,4.2,11.8,3.7,15.9-1c3-3.4,5.7-7.5,8.3-11.7
	C292.8,245.7,293.1,245.3,293.3,245z"/>
</svg>
